# Blender 4.1.1
# www.blender.org
mtllib test.mtl
o Cube
v -1.000000 1.000000 1.000000
v -1.000000 -1.000000 1.000000
v -1.000000 1.000000 -1.000000
v -1.000000 -1.000000 -1.000000
v 1.000000 1.000000 1.000000
v 1.000000 -1.000000 1.000000
v 1.000000 1.000000 -1.000000
v 1.000000 -1.000000 -1.000000
v -0.427193 2.326670 -0.427193
v 0.427193 2.326670 -0.427193
v -0.427193 2.326670 0.427193
v 0.427193 2.326670 0.427193
v -0.427193 3.195444 -0.427193
v 0.427193 3.195444 -0.427193
v -0.427193 3.195444 0.427193
v 0.427193 3.195444 0.427193
v -0.427193 4.333504 -0.427193
v 0.427193 4.333504 -0.427193
v -0.427193 4.333504 0.427193
v 0.427193 4.333504 0.427193
v -0.427193 5.204026 -0.427193
v 0.427193 5.204026 -0.427193
v -0.427193 5.204026 0.427193
v 0.427193 5.204026 0.427193
v -0.427193 5.967296 -0.427193
v 0.427193 5.967296 -0.427193
v -0.427193 5.967296 0.427193
v 0.427193 5.967296 0.427193
v -0.427193 6.240564 -0.427193
v 0.427193 6.240564 -0.427193
v -0.427193 6.240564 0.427193
v 0.427193 6.240564 0.427193
vn -0.0000 0.3964 -0.9181
vn -0.0000 -0.0000 -1.0000
vn 1.0000 -0.0000 -0.0000
vn -0.0000 -1.0000 -0.0000
vn -1.0000 -0.0000 -0.0000
vn -0.0000 -0.0000 1.0000
vn 0.9181 0.3964 -0.0000
vn -0.9181 0.3964 -0.0000
vn -0.0000 0.3964 0.9181
vn -0.0000 1.0000 -0.0000
vt 0.625000 1.000000
vt 0.625000 0.750000
vt 0.375000 0.750000
vt 0.375000 1.000000
vt 0.375000 0.000000
vt 0.625000 0.000000
vt 0.625000 0.250000
vt 0.375000 0.250000
vt 0.125000 0.500000
vt 0.375000 0.500000
vt 0.125000 0.750000
vt 0.625000 0.500000
vt 0.875000 0.500000
vt 0.875000 0.750000
s 0
usemtl Material
f 7/1/1 3/2/1 9/2/1 10/1/1
f 4/3/2 3/2/2 7/1/2 8/4/2
f 8/5/3 7/6/3 5/7/3 6/8/3
f 6/9/4 2/10/4 4/3/4 8/11/4
f 2/10/5 1/12/5 3/2/5 4/3/5
f 6/8/6 5/7/6 1/12/6 2/10/6
f 11/12/6 12/7/6 16/7/6 15/12/6
f 5/7/7 7/6/7 10/6/7 12/7/7
f 3/2/8 1/12/8 11/12/8 9/2/8
f 1/12/9 5/7/9 12/7/9 11/12/9
f 16/7/3 14/6/3 18/6/3 20/7/3
f 9/2/5 11/12/5 15/12/5 13/2/5
f 12/7/3 10/6/3 14/6/3 16/7/3
f 10/1/2 9/2/2 13/2/2 14/1/2
f 20/7/3 18/6/3 22/6/3 24/7/3
f 14/1/2 13/2/2 17/2/2 18/1/2
f 15/12/6 16/7/6 20/7/6 19/12/6
f 13/2/5 15/12/5 19/12/5 17/2/5
f 23/12/6 24/7/6 28/7/6 27/12/6
f 18/1/2 17/2/2 21/2/2 22/1/2
f 19/12/6 20/7/6 24/7/6 23/12/6
f 17/2/5 19/12/5 23/12/5 21/2/5
f 28/7/3 26/6/3 30/6/3 32/7/3
f 21/2/5 23/12/5 27/12/5 25/2/5
f 24/7/3 22/6/3 26/6/3 28/7/3
f 22/1/2 21/2/2 25/2/2 26/1/2
f 31/12/10 32/13/10 30/14/10 29/2/10
f 26/1/2 25/2/2 29/2/2 30/1/2
f 27/12/6 28/7/6 32/7/6 31/12/6
f 25/2/5 27/12/5 31/12/5 29/2/5
