# Blender 4.1.1
# www.blender.org
mtllib test2.mtl
o Cube
v -0.191405 -0.191405 0.191405
v -0.191405 0.191405 0.191405
v -0.191405 -0.191405 -0.191405
v -0.191405 0.191405 -0.191405
v 0.191405 -0.191405 0.191405
v 0.191405 0.191405 0.191405
v 0.191405 -0.191405 -0.191405
v 0.191405 0.191405 -0.191405
v 0.571456 0.191405 0.191405
v 0.571456 0.191405 -0.191405
v 0.571456 -0.191405 -0.191405
v 0.571456 -0.191405 0.191405
v 0.753184 0.191405 0.191405
v 0.753184 0.191405 -0.191405
v 0.753184 -0.191405 -0.191405
v 0.753184 -0.191405 0.191405
v -0.191405 0.191405 0.438328
v 0.191405 0.191405 0.438328
v -0.191405 -0.191405 0.438328
v 0.191405 -0.191405 0.438328
v 0.571456 0.303210 0.191405
v 0.571456 0.303210 -0.191405
v 0.753184 0.303210 0.191405
v 0.753184 0.303210 -0.191405
vn -0.0000 1.0000 -0.0000
vn -0.0000 -0.0000 1.0000
vn -0.0000 -1.0000 -0.0000
vn 1.0000 -0.0000 -0.0000
vn -0.0000 -0.0000 -1.0000
vn -1.0000 -0.0000 -0.0000
vt 0.625000 0.500000
vt 0.875000 0.500000
vt 0.875000 0.750000
vt 0.625000 0.750000
vt 0.375000 0.750000
vt 0.625000 1.000000
vt 0.375000 1.000000
vt 0.125000 0.500000
vt 0.125000 0.750000
vt 0.375000 0.500000
vt 0.625000 0.250000
vt 0.375000 0.250000
vt 0.375000 0.000000
vt 0.625000 0.000000
s 0
usemtl Material
f 1/1/1 5/2/1 7/3/1 3/4/1
f 4/5/2 3/4/2 7/6/2 8/7/2
f 6/8/3 8/9/3 10/9/3 9/8/3
f 6/8/3 2/10/3 4/5/3 8/9/3
f 2/10/4 1/1/4 3/4/4 4/5/4
f 5/2/1 1/1/1 19/1/1 20/2/1
f 11/3/1 12/2/1 16/2/1 15/3/1
f 7/3/1 5/2/1 12/2/1 11/3/1
f 5/11/5 6/12/5 9/12/5 12/11/5
f 8/7/2 7/6/2 11/6/2 10/7/2
f 14/13/6 15/14/6 16/11/6 13/12/6
f 10/7/2 11/6/2 15/6/2 14/7/2
f 12/11/5 9/12/5 13/12/5 16/11/5
f 10/7/2 14/7/2 24/7/2 22/7/2
f 18/12/5 20/11/5 19/1/5 17/10/5
f 1/1/4 2/10/4 17/10/4 19/1/4
f 6/12/6 5/11/6 20/11/6 18/12/6
f 2/10/3 6/8/3 18/8/3 17/10/3
f 21/8/3 22/9/3 24/9/3 23/8/3
f 14/13/6 13/12/6 23/12/6 24/13/6
f 13/12/5 9/12/5 21/12/5 23/12/5
f 9/8/4 10/9/4 22/9/4 21/8/4
